<?xml version="1.0" encoding="utf-8"?>
<!DOCTYPE svg PUBLIC "-//W3C//DTD SVG 1.0//EN" "http://www.w3.org/TR/2001/REC-SVG-20010904/DTD/svg10.dtd">
<svg version="1.0" xmlns="http://www.w3.org/2000/svg" width="198px" height="40px" viewBox="0 0 198 40" preserveAspectRatio="xMidYMid meet">
 <g fill="#000000">
  <path d="M17.66 39.02 c-2.18 -0.43 -3.99 -1.09 -5.46 -2 l-0.61 -0.38 -0.08 0.46 c-0.13 0.64 -0.54 1.01 -1.14 1.01 -0.74 0 -1.49 -0.91 -2.67 -3.33 l-1.04 -2.08 -0.28 0.56 c-0.43 0.91 -1.49 1.07 -1.98 0.31 -0.33 -0.50 -0.59 -2.69 -0.59 -4.90 l0 -1.78 -0.50 0 c-1.40 0 -1.52 -1.80 -0.31 -5.45 0.56 -1.75 0.63 -1.98 0.51 -1.96 -0.66 0.10 -1.35 -0.50 -1.35 -1.12 0 -0.74 1.20 -2.56 2.61 -3.91 0.58 -0.56 0.64 -0.68 0.43 -0.87 -0.13 -0.13 -0.23 -0.48 -0.23 -0.79 0 -0.64 0.71 -1.35 2.19 -2.21 0.64 -0.36 0.94 -0.64 0.94 -0.86 0 -0.63 0.36 -1.01 1.53 -1.57 0.64 -0.31 1.27 -0.56 1.39 -0.56 0.13 0 0.21 -0.21 0.21 -0.58 0 -0.64 0.48 -1.19 1.15 -1.34 0.92 -0.21 0.94 -0.21 0.86 -0.71 -0.05 -0.33 0.03 -0.58 0.26 -0.81 0.33 -0.33 1.60 -0.61 2.05 -0.45 0.20 0.08 0.30 -0.03 0.38 -0.45 0.15 -0.71 0.69 -1.29 1.20 -1.29 0.23 0 0.74 0.18 1.12 0.41 l0.71 0.41 0.12 -0.61 c0.23 -1.30 0.74 -1.86 1.68 -1.86 0.82 0 1.32 0.53 1.75 1.86 0.08 0.28 0.13 0.28 0.46 0.05 0.73 -0.51 1.78 -0.15 1.78 0.61 0 0.25 0.05 0.25 0.56 -0.05 1.34 -0.74 2.81 -0.92 3.25 -0.40 0.31 0.38 0.07 1.49 -0.50 2.24 l-0.53 0.71 0.79 0.18 c0.87 0.20 1.55 0.51 1.73 0.79 0.07 0.10 0.13 0.41 0.13 0.71 0 0.46 0.07 0.54 0.76 0.78 1.29 0.43 2.19 1.06 2.31 1.55 0.17 0.76 0.21 0.86 0.51 0.97 0.59 0.23 2.01 1.20 2.34 1.63 0.40 0.50 0.46 1.27 0.12 1.58 -0.18 0.17 -0.05 0.40 0.79 1.34 1.35 1.50 2.24 2.85 2.24 3.40 -0.02 0.59 -0.48 1.15 -1.01 1.20 l-0.45 0.03 0.23 0.76 c0.84 2.66 1.09 3.68 1.17 4.70 0.07 1.02 0.05 1.20 -0.26 1.53 -0.33 0.35 -0.63 0.45 -1.12 0.38 -0.17 -0.02 -0.21 0.43 -0.21 1.75 0 2.23 -0.26 4.42 -0.59 4.92 -0.50 0.76 -1.55 0.59 -1.98 -0.31 l-0.28 -0.56 -1.04 2.08 c-1.34 2.69 -1.85 3.33 -2.71 3.33 -0.68 0 -0.91 -0.18 -1.07 -0.87 -0.07 -0.25 -0.17 -0.43 -0.23 -0.41 -3.02 1.49 -3.76 1.75 -5.87 2.18 -1.42 0.30 -4.74 0.30 -6.19 0.02z m6.09 -1.49 c2.28 -0.56 3.96 -1.27 5.54 -2.38 0.66 -0.45 1.17 -0.68 1.52 -0.68 0.50 0 0.53 0.03 0.58 0.71 l0.05 0.69 0.73 -1.40 c0.40 -0.78 1.04 -2.14 1.44 -3.05 0.69 -1.60 0.73 -1.65 1.29 -1.70 0.56 -0.05 0.58 -0.02 0.76 0.66 0.41 1.62 0.48 1.34 0.48 -2.13 l0.02 -3.51 0.54 0 c0.30 0 0.69 0.12 0.87 0.25 0.35 0.23 0.35 0.23 0.12 -0.71 -0.36 -1.44 -0.48 -1.82 -1.02 -3.42 -0.30 -0.86 -0.51 -1.83 -0.51 -2.29 l0 -0.79 0.64 0.07 c0.58 0.05 0.63 0.02 0.50 -0.23 -0.08 -0.15 -0.89 -1.06 -1.80 -2.01 -1.45 -1.53 -1.65 -1.80 -1.65 -2.33 0 -0.50 0.05 -0.58 0.38 -0.58 0.36 -0.02 0.36 -0.02 0.03 -0.26 -0.18 -0.13 -0.94 -0.59 -1.68 -0.99 -1.30 -0.71 -1.37 -0.78 -1.37 -1.30 0 -0.66 -0.05 -0.68 -1.93 -1.32 l-1.37 -0.46 0 -0.63 c0 -0.35 0.08 -0.64 0.21 -0.69 0.10 -0.03 -0.50 -0.17 -1.32 -0.28 l-1.53 -0.21 0 -0.54 c0 -0.30 0.07 -0.58 0.15 -0.64 0.08 -0.05 0.40 -0.40 0.69 -0.76 l0.54 -0.68 -0.51 0.26 c-0.54 0.26 -1.86 1.53 -1.86 1.78 0 0.07 -0.26 0.13 -0.59 0.13 l-0.59 0 0.07 -0.94 0.08 -0.96 -0.38 0.82 c-0.21 0.46 -0.40 0.92 -0.40 1.04 0 0.12 -0.23 0.20 -0.56 0.20 l-0.56 0 -0.07 -1.77 c-0.07 -1.91 -0.35 -2.85 -0.68 -2.28 -0.10 0.18 -0.20 1.04 -0.25 1.93 l-0.08 1.62 -0.53 0 c-0.45 0 -0.58 -0.08 -0.74 -0.50 -0.18 -0.45 -1.47 -1.73 -1.60 -1.60 -0.02 0.03 0.03 0.31 0.12 0.63 0.10 0.30 0.17 0.87 0.17 1.25 0 0.69 -0.02 0.71 -0.58 0.71 -0.36 0 -0.63 -0.10 -0.73 -0.28 -0.15 -0.25 -0.17 -0.23 -0.18 0.17 0 0.38 -0.07 0.45 -0.45 0.45 -0.66 0 -2.64 0.38 -2.39 0.45 0.10 0.05 0.20 0.35 0.20 0.69 0 0.59 -0.02 0.61 -0.94 0.91 -0.53 0.15 -1.27 0.43 -1.65 0.59 -0.63 0.28 -0.71 0.38 -0.71 0.87 0 0.53 -0.07 0.59 -1.50 1.37 -1.65 0.89 -2.05 1.22 -1.49 1.22 0.28 0 0.35 0.10 0.35 0.54 0 0.41 -0.20 0.73 -0.87 1.44 -1.34 1.42 -2.43 2.67 -2.59 2.95 -0.12 0.23 -0.03 0.25 0.59 0.20 0.73 -0.05 0.73 -0.05 0.73 0.50 0 0.30 -0.33 1.52 -0.73 2.69 -0.41 1.19 -0.84 2.62 -0.97 3.20 l-0.25 1.04 0.36 -0.33 c0.21 -0.20 0.59 -0.35 0.89 -0.35 l0.53 0 0.02 3.60 c0 3.53 0.07 3.83 0.48 2.23 0.17 -0.66 0.21 -0.71 0.74 -0.71 0.51 0 0.61 0.07 0.82 0.63 0.68 1.62 0.87 2.05 1.73 3.75 l0.91 1.82 0.05 -0.69 c0.05 -0.69 0.07 -0.71 0.63 -0.71 0.38 0 0.82 0.18 1.34 0.56 1.04 0.74 2.85 1.63 4.14 2.06 0.91 0.30 1.50 0.43 3.33 0.74 0.69 0.12 3.30 -0.07 4.27 -0.31z"/>
  <path d="M14.97 29.29 c-1.09 -0.82 -1.77 -1.88 -1.77 -2.71 0 -0.68 0 -0.68 0.64 -0.68 0.38 0 0.76 0.12 0.91 0.26 0.15 0.13 0.26 0.18 0.26 0.08 0 -0.10 0.35 -0.18 0.82 -0.18 0.46 0 0.82 0.05 0.82 0.13 0 0.07 0.89 0.10 1.98 0.07 1.52 -0.03 1.98 0.02 1.98 0.17 0 0.18 0.03 0.18 0.13 0 0.10 -0.15 0.66 -0.20 2.06 -0.17 1.06 0.03 1.93 -0.02 1.93 -0.08 0 -0.07 0.43 -0.13 0.96 -0.13 0.51 0 1.29 -0.03 1.73 -0.08 l0.78 -0.10 0 0.61 c0 0.79 -0.46 1.52 -1.62 2.57 l-0.94 0.84 -1.07 -0.10 c-0.59 -0.05 -1.44 -0.18 -1.90 -0.30 -0.58 -0.15 -1.01 -0.17 -1.45 -0.07 -0.43 0.12 -0.79 0.10 -1.11 -0.02 -0.36 -0.13 -0.76 -0.12 -1.77 0.13 -1.96 0.46 -2.51 0.41 -3.40 -0.26z"/>
  <path d="M14.06 21.99 c-1.55 -0.76 -1.58 -3.83 -0.07 -4.70 0.76 -0.45 2.46 -0.40 3.18 0.08 0.76 0.51 0.97 1.01 0.97 2.26 0 1.29 -0.35 1.96 -1.20 2.36 -0.73 0.35 -2.18 0.35 -2.89 0z"/>
  <path d="M24.44 21.98 c-0.76 -0.41 -1.17 -1.22 -1.17 -2.31 0 -1.80 0.86 -2.67 2.62 -2.67 1.86 0 2.66 0.78 2.66 2.64 0 1.29 -0.35 1.96 -1.20 2.36 -0.78 0.38 -2.19 0.36 -2.90 -0.02z"/>
  <path d="M145.94 38.91 c-1.49 -0.82 -1.45 -1.35 0.33 -4.92 0.78 -1.53 1.40 -2.84 1.40 -2.89 0 -0.03 -0.25 -0.18 -0.56 -0.31 -0.31 -0.13 -0.69 -0.43 -0.84 -0.64 -0.15 -0.23 -1.50 -3.27 -2.99 -6.75 -2.97 -6.86 -3.12 -7.34 -2.39 -8.12 0.82 -0.89 2.11 -0.91 2.74 -0.07 0.17 0.21 1.30 2.87 2.54 5.91 2.03 4.93 2.31 5.54 2.71 5.68 0.30 0.12 0.51 0.10 0.61 0 0.10 -0.10 1.06 -2.67 2.13 -5.74 1.22 -3.48 2.10 -5.71 2.33 -5.96 1.01 -1.07 3.13 -0.33 3.13 1.11 0 0.40 -8.10 20.48 -8.84 21.94 -0.41 0.79 -1.55 1.17 -2.29 0.76z"/>
  <path d="M107.50 38.66 c-1.50 -0.20 -3.43 -0.99 -3.91 -1.60 -0.45 -0.54 -0.38 -1.62 0.13 -2.23 0.54 -0.64 1.30 -0.68 2.57 -0.12 2.06 0.92 4.93 1.01 6.52 0.21 0.97 -0.50 1.73 -1.35 2.01 -2.24 0.20 -0.68 0.25 -3.15 0.07 -3.15 -0.07 0 -0.30 0.18 -0.53 0.40 -1.14 1.07 -3.17 1.68 -5.05 1.53 -3.22 -0.26 -5.82 -2.24 -7.01 -5.35 -0.51 -1.32 -0.63 -3.83 -0.26 -5.40 0.73 -3.10 3.15 -5.51 6.07 -6.06 1.98 -0.36 4.59 0.25 6.12 1.42 l0.74 0.58 0.12 -0.48 c0.17 -0.74 0.78 -1.20 1.72 -1.30 0.76 -0.07 0.87 -0.03 1.34 0.43 l0.51 0.51 -0.05 8.79 -0.05 8.79 -0.53 1.09 c-1.02 2.06 -3.09 3.51 -5.73 4.03 -1.17 0.23 -3.60 0.30 -4.80 0.13z m4.93 -10.92 c1.55 -0.71 2.43 -2.23 2.54 -4.41 0.10 -1.95 -0.25 -3 -1.35 -4.13 -0.99 -0.97 -1.73 -1.25 -3.32 -1.25 -2.08 0 -3.51 0.81 -4.32 2.46 -0.41 0.84 -0.46 1.14 -0.46 2.52 0 1.78 0.35 2.79 1.29 3.76 1.35 1.42 3.81 1.86 5.63 1.04z"/>
  <path d="M44.22 31.15 c-0.35 -0.23 -0.61 -0.59 -0.69 -0.92 -0.08 -0.30 -0.13 -3.70 -0.10 -7.52 0.05 -6.73 0.07 -7.01 0.38 -7.36 0.87 -0.97 1.98 -1.02 2.82 -0.15 l0.48 0.50 0.05 7.08 c0.05 7.90 0.05 7.97 -1.01 8.46 -0.78 0.38 -1.29 0.35 -1.93 -0.08z"/>
  <path d="M52.72 31.28 c-0.28 -0.12 -0.59 -0.41 -0.71 -0.66 -0.25 -0.56 -0.28 -14.02 -0.03 -14.69 0.20 -0.54 1.09 -1.09 1.73 -1.09 0.74 0 1.55 0.56 1.68 1.15 0.05 0.28 0.12 0.50 0.15 0.50 0.03 0 0.43 -0.26 0.87 -0.59 2.87 -2.05 6.98 -1.65 8.78 0.86 l0.53 0.71 0.79 -0.82 c1.40 -1.44 3.83 -2.28 5.94 -2.06 2.84 0.28 4.80 2.06 5.56 5.03 0.17 0.64 0.25 2.36 0.31 5.71 0.07 4.59 0.07 4.80 -0.26 5.31 -0.21 0.35 -0.56 0.59 -0.99 0.73 -0.78 0.23 -1.34 0.12 -1.95 -0.41 l-0.46 -0.40 -0.08 -5.02 c-0.05 -2.74 -0.17 -5.15 -0.25 -5.33 -0.71 -1.62 -1.68 -2.28 -3.38 -2.28 -1.49 0 -2.18 0.26 -2.94 1.12 -1.09 1.24 -1.19 1.82 -1.19 6.91 0 4.45 0 4.50 -0.36 4.83 -0.51 0.46 -1.02 0.71 -1.45 0.71 -0.58 0 -1.42 -0.48 -1.63 -0.92 -0.12 -0.28 -0.18 -1.83 -0.18 -4.65 0 -4.72 -0.15 -5.78 -0.96 -6.78 -0.71 -0.87 -1.52 -1.22 -2.87 -1.20 -1.63 0 -2.52 0.48 -3.15 1.70 -0.64 1.27 -0.78 2.36 -0.78 6.85 0 3.91 0 3.98 -0.36 4.31 -0.82 0.74 -1.47 0.87 -2.36 0.48z"/>
  <path d="M87.71 31.25 c-2.79 -0.68 -4.93 -2.81 -5.81 -5.76 -0.33 -1.17 -0.38 -3.78 -0.08 -4.85 0.66 -2.33 2.11 -4.11 4.21 -5.13 2.90 -1.44 5.91 -1.22 8.28 0.61 l0.53 0.40 0.17 -0.50 c0.21 -0.61 1.09 -1.17 1.83 -1.17 0.40 0 0.69 0.15 1.11 0.56 l0.56 0.56 0 7.18 c0 6.98 -0.02 7.18 -0.35 7.59 -0.99 1.27 -3.28 0.74 -3.28 -0.74 0 -0.54 -0.17 -0.58 -0.58 -0.13 -1.24 1.37 -4.14 1.98 -6.58 1.39z m4.64 -3.55 c1.60 -0.78 2.44 -2.46 2.43 -4.85 0 -1.67 -0.30 -2.56 -1.19 -3.58 -1.57 -1.77 -5.13 -1.82 -6.93 -0.08 -0.94 0.89 -1.24 1.67 -1.32 3.33 -0.08 1.70 0.10 2.51 0.76 3.55 1.20 1.90 4.13 2.66 6.25 1.63z"/>
  <path d="M128.95 31.33 c-4.11 -0.68 -6.68 -3.98 -6.68 -8.56 0 -2.51 0.66 -4.14 2.29 -5.78 1.27 -1.27 2.49 -1.90 4.24 -2.24 1.57 -0.30 2.49 -0.30 3.94 0.02 1.53 0.33 2.71 0.94 3.71 1.96 1.11 1.12 1.42 1.63 1.82 2.89 0.59 1.90 0.38 3.35 -0.59 4.13 -0.43 0.33 -0.61 0.35 -5.78 0.35 -6.01 0 -5.96 -0.02 -5.63 1.09 0.26 0.87 1.45 2.10 2.46 2.56 0.74 0.33 1.14 0.40 2.61 0.40 1.86 0 2.99 -0.28 4.16 -1.02 0.86 -0.53 1.45 -0.50 2.03 0.12 0.64 0.66 0.68 1.60 0.08 2.23 -1.40 1.49 -5.58 2.41 -8.66 1.88z m5.66 -10.10 c0.25 -0.30 -0.05 -1.35 -0.56 -2.05 -0.21 -0.28 -0.81 -0.73 -1.32 -0.97 -1.65 -0.81 -3.71 -0.58 -5.36 0.59 -0.56 0.41 -1.14 1.45 -1.14 2.05 l0 0.41 2.03 0.07 c5.36 0.13 6.17 0.12 6.35 -0.10z"/>
  <path d="M164.77 31.25 c-3.68 -0.79 -5.96 -3.56 -6.30 -7.64 -0.35 -4.17 1.85 -7.52 5.69 -8.66 2.18 -0.64 4.82 -0.45 6.75 0.50 1.27 0.63 2.57 1.96 3.20 3.30 0.66 1.40 0.84 3.43 0.40 4.27 -0.58 1.06 -0.66 1.07 -6.42 1.07 -2.87 0 -5.31 0.05 -5.46 0.10 -0.54 0.21 -0.17 1.45 0.79 2.51 1.62 1.78 5.18 2.01 8.05 0.53 1.37 -0.71 2.03 -0.63 2.52 0.33 0.50 0.97 0.20 1.78 -0.89 2.44 -2.19 1.35 -5.54 1.85 -8.33 1.25z m5.91 -9.90 c0.35 -0.13 0.33 -0.66 -0.05 -1.47 -1.14 -2.46 -5.15 -2.89 -7.31 -0.79 -0.64 0.63 -1.06 1.53 -0.89 1.95 0.07 0.18 0.54 0.25 2.11 0.30 4.44 0.10 5.89 0.12 6.14 0.02z"/>
  <path d="M182.85 31.22 c-1.20 -0.45 -2.01 -1.14 -2.59 -2.26 l-0.50 -0.97 -0.05 -4.37 c-0.02 -2.41 -0.08 -4.55 -0.12 -4.77 -0.08 -0.31 -0.20 -0.36 -0.92 -0.36 -1.65 0 -2.43 -0.69 -2.23 -1.98 0.13 -0.86 0.76 -1.32 1.77 -1.32 1.50 0 1.47 0.07 1.47 -3.13 l0 -2.81 0.48 -0.53 c0.43 -0.48 0.58 -0.54 1.32 -0.54 0.69 0 0.91 0.08 1.29 0.46 l0.46 0.45 0.05 2.85 c0.03 2.41 0.08 2.87 0.31 3.05 0.18 0.13 0.89 0.20 2.11 0.20 2.10 0 2.44 0.15 2.72 1.12 0.23 0.76 0.03 1.39 -0.61 1.80 -0.35 0.23 -0.89 0.31 -2.44 0.38 l-1.98 0.08 0 4.26 0 4.27 0.56 0.50 c0.56 0.50 0.58 0.51 1.90 0.40 1.95 -0.17 2.13 -0.15 2.54 0.31 0.46 0.54 0.50 1.53 0.03 2.11 -0.74 0.94 -3.93 1.40 -5.58 0.81z"/>
  <path d="M192.77 31.27 c-0.28 -0.12 -0.59 -0.36 -0.69 -0.56 -0.12 -0.21 -0.18 -2.74 -0.18 -7.69 l0 -7.38 0.46 -0.46 c0.61 -0.61 1.47 -0.78 2.16 -0.43 1.01 0.53 1.01 0.51 1.01 8.38 0 7.94 0.03 7.69 -1.09 8.15 -0.68 0.28 -0.99 0.28 -1.67 -0.02z"/>
  <path d="M44.80 11.22 c-1.20 -0.26 -1.90 -1.09 -1.90 -2.26 0 -1.70 2.21 -2.79 3.75 -1.85 0.68 0.43 1.04 1.09 1.04 1.91 0 1.44 -1.40 2.51 -2.89 2.19z"/>
  <path d="M193.10 11.22 c-1.58 -0.36 -2.33 -1.95 -1.53 -3.27 0.94 -1.53 3.25 -1.60 4.22 -0.12 0.40 0.61 0.38 1.80 -0.03 2.34 -0.69 0.92 -1.60 1.27 -2.66 1.04z"/>
 </g>
 <g fill="#e2fafc">
  <path d="M17.34 35.23 c-3.91 -0.86 -7.19 -3.43 -9.01 -7.09 -0.99 -2.01 -1.15 -2.92 -1.15 -6.35 0.02 -3.04 0.02 -3.05 0.56 -4.54 1.57 -4.24 4.82 -7.21 9.26 -8.43 1.52 -0.41 5.58 -0.41 7.09 0 4.44 1.22 7.69 4.19 9.26 8.43 0.54 1.49 0.54 1.50 0.56 4.54 0 3.43 -0.17 4.34 -1.15 6.35 -1.85 3.70 -5.11 6.25 -9.09 7.09 -1.44 0.30 -4.90 0.30 -6.32 0z m5.58 -5.69 c0.71 -0.20 1.42 -0.30 1.72 -0.25 0.46 0.08 0.64 0 1.47 -0.74 0.89 -0.79 1.75 -1.91 1.58 -2.08 -0.18 -0.17 -0.61 0.15 -0.79 0.61 -0.26 0.59 -0.35 0.59 -0.71 -0.02 -0.33 -0.53 -0.84 -0.66 -1.01 -0.23 -0.07 0.17 -0.20 0.23 -0.38 0.17 -0.15 -0.07 -0.33 -0.02 -0.41 0.10 -0.10 0.17 -0.18 0.15 -0.31 -0.07 -0.20 -0.36 -0.79 -0.38 -0.91 -0.05 -0.08 0.20 -0.15 0.21 -0.35 0.05 -0.18 -0.15 -0.26 -0.15 -0.36 0.02 -0.10 0.15 -0.18 0.13 -0.35 -0.07 -0.26 -0.33 -0.66 -0.31 -0.91 0.03 -0.18 0.25 -0.25 0.25 -0.48 0.07 -0.21 -0.18 -0.26 -0.18 -0.26 0 -0.02 0.17 -0.07 0.15 -0.23 -0.05 -0.26 -0.36 -0.74 -0.38 -0.86 -0.05 -0.08 0.20 -0.15 0.21 -0.35 0.05 -0.18 -0.15 -0.26 -0.15 -0.40 0.05 -0.13 0.20 -0.18 0.18 -0.33 -0.05 -0.20 -0.36 -0.79 -0.38 -0.91 -0.05 -0.08 0.18 -0.17 0.21 -0.31 0.08 -0.12 -0.10 -0.33 -0.13 -0.48 -0.07 -0.17 0.07 -0.30 0 -0.36 -0.17 -0.13 -0.35 -0.66 -0.35 -0.79 0 -0.07 0.17 -0.21 0.21 -0.45 0.15 -0.31 -0.10 -0.33 -0.08 -0.15 0.28 0.18 0.36 0.18 0.36 -0.08 0.05 -0.58 -0.73 -0.74 -0.91 -0.91 -0.91 -0.53 0 0.53 1.57 1.60 2.39 0.66 0.50 0.87 0.58 1.37 0.51 0.36 -0.07 0.91 0.02 1.49 0.23 1.22 0.43 3.04 0.43 4.60 0z m-6.47 -8.04 c0.71 -0.33 1.20 -1.09 1.20 -1.86 0 -1.62 -1.78 -2.66 -3.17 -1.85 -0.53 0.30 -1.12 1.29 -1.12 1.85 0 0.61 0.63 1.58 1.19 1.86 0.69 0.35 1.17 0.35 1.90 0z m10.40 0 c2.01 -0.94 1.29 -4.01 -0.96 -4.01 -1.06 0 -2.13 1.11 -2.13 2.18 0 0.61 0.56 1.49 1.17 1.82 0.69 0.36 1.17 0.38 1.91 0.02z"/>
 </g>
 <g fill="#ffffff">
  <path d="M18.98 38.35 c-0.23 -0.03 -0.84 -0.15 -1.35 -0.25 -2.03 -0.36 -4.47 -1.39 -6.12 -2.56 -0.43 -0.31 -0.81 -0.56 -0.84 -0.56 -0.03 0 -0.03 0.43 0 0.96 0.05 0.53 0 1.04 -0.10 1.19 -0.15 0.21 -0.25 0.17 -0.68 -0.33 -0.46 -0.53 -1.82 -3.07 -2.49 -4.70 -0.15 -0.36 -0.41 -0.96 -0.56 -1.32 -0.31 -0.74 -0.31 -0.74 -0.82 0.94 -0.36 1.24 -0.63 1.62 -0.92 1.32 -0.17 -0.17 -0.23 -1.15 -0.26 -4.09 l-0.07 -3.88 -0.58 0.51 c-1.57 1.39 -1.55 -0.33 0.03 -5.02 0.41 -1.19 0.71 -2.16 0.69 -2.18 -0.03 -0.03 -0.36 0.03 -0.74 0.13 -0.69 0.17 -1.19 0.10 -1.19 -0.18 0 -0.33 1.39 -2.16 2.71 -3.56 l1.39 -1.49 -0.56 -0.10 c-0.31 -0.05 -0.61 -0.13 -0.64 -0.18 -0.33 -0.31 0.74 -1.17 2.87 -2.29 1.06 -0.54 1.06 -0.56 0.63 -0.71 -0.25 -0.10 -0.43 -0.25 -0.40 -0.33 0.08 -0.30 1.57 -1.02 2.85 -1.44 0.68 -0.21 1.22 -0.43 1.22 -0.48 0 -0.05 -0.23 -0.21 -0.50 -0.36 -0.97 -0.54 -0.53 -0.86 1.72 -1.17 l1.49 -0.21 -0.87 -0.53 c-0.46 -0.30 -0.81 -0.61 -0.76 -0.69 0.13 -0.21 1.50 -0.21 1.95 0.02 0.20 0.10 0.54 0.38 0.74 0.61 l0.40 0.45 -0.10 -0.50 c-0.25 -1.20 -0.30 -2.34 -0.12 -2.46 0.23 -0.15 1.44 0.53 1.93 1.09 0.20 0.20 0.46 0.59 0.59 0.86 0.25 0.46 0.25 0.41 0.33 -1.19 0.12 -2.38 0.68 -3.10 1.52 -1.96 0.26 0.36 0.35 0.79 0.43 2.31 0.07 1.01 0.13 1.73 0.13 1.60 0.12 -0.87 1.39 -2.81 1.86 -2.81 0.20 0 0.13 1.62 -0.12 2.47 -0.12 0.40 -0.10 0.40 0.28 -0.08 0.51 -0.66 0.92 -1.02 1.67 -1.50 0.66 -0.43 2.05 -0.86 2.19 -0.69 0.10 0.10 -0.35 1.11 -0.56 1.29 -0.05 0.05 -0.41 0.46 -0.79 0.92 l-0.69 0.84 1.40 0.20 c1.44 0.20 2.21 0.45 2.21 0.71 0 0.08 -0.21 0.28 -0.50 0.43 -0.26 0.15 -0.50 0.33 -0.50 0.38 0 0.07 0.64 0.33 1.42 0.58 1.53 0.51 2.56 1.02 2.66 1.32 0.03 0.12 -0.13 0.26 -0.38 0.35 -0.45 0.15 -0.41 0.18 0.99 0.94 1.55 0.86 2.62 1.68 2.52 1.98 -0.03 0.10 -0.35 0.21 -0.71 0.26 l-0.64 0.08 1.68 1.78 c1.70 1.78 2.64 3.10 2.44 3.42 -0.13 0.21 -0.76 0.21 -1.30 0 -0.58 -0.21 -0.56 0.02 0.08 1.90 0.54 1.58 0.64 1.93 1.04 3.46 0.53 2.08 0.25 2.74 -0.82 1.88 l-0.64 -0.51 -0.08 3.81 c-0.08 3.70 -0.18 4.36 -0.63 4.08 -0.17 -0.10 -0.59 -1.17 -0.86 -2.23 -0.10 -0.40 -0.25 -0.66 -0.31 -0.58 -0.07 0.08 -0.36 0.74 -0.68 1.47 -1.27 3.04 -2.67 5.53 -3.09 5.53 -0.30 0 -0.45 -0.73 -0.31 -1.58 0.12 -0.82 0.20 -0.84 -1.24 0.12 -1.42 0.97 -3.05 1.65 -5.51 2.29 -0.71 0.18 -4.36 0.36 -5.03 0.23z m4.19 -3.61 c3.98 -0.84 7.24 -3.40 9.09 -7.09 0.96 -1.95 1.15 -2.97 1.14 -5.86 0 -2.47 -0.02 -2.61 -0.54 -4.04 -1.55 -4.24 -4.83 -7.23 -9.26 -8.43 -1.47 -0.40 -4.64 -0.40 -6.11 0 -4.42 1.20 -7.71 4.19 -9.26 8.43 -0.53 1.44 -0.54 1.57 -0.54 4.04 -0.02 2.89 0.18 3.91 1.14 5.86 1.82 3.66 5.10 6.24 9.01 7.09 1.40 0.30 3.93 0.30 5.33 0z"/>
  <path d="M20.33 27.23 c-0.20 -0.36 -0.36 -0.68 -0.36 -0.73 0 -0.07 0.26 -0.10 0.58 -0.10 0.73 0 0.86 0.30 0.46 0.96 l-0.31 0.50 -0.36 -0.63z"/>
  <path d="M16.47 27.21 c-0.17 -0.28 -0.30 -0.58 -0.30 -0.66 0 -0.17 1.20 -0.21 1.37 -0.05 0.10 0.10 -0.51 1.22 -0.68 1.22 -0.07 0 -0.25 -0.23 -0.40 -0.51z"/>
  <path d="M18.43 27.24 c-0.15 -0.26 -0.28 -0.56 -0.28 -0.66 0 -0.18 1.19 -0.26 1.37 -0.08 0.10 0.12 -0.51 1.22 -0.69 1.22 -0.07 0 -0.23 -0.21 -0.40 -0.48z"/>
  <path d="M22.29 27.24 c-0.20 -0.26 -0.35 -0.56 -0.35 -0.66 0 -0.18 1.19 -0.26 1.37 -0.08 0.08 0.08 -0.50 1.22 -0.63 1.22 -0.03 0 -0.21 -0.21 -0.40 -0.48z"/>
  <path d="M24.21 27.24 c-0.41 -0.71 -0.35 -0.84 0.38 -0.84 0.73 0 0.78 0.12 0.41 0.82 -0.31 0.61 -0.43 0.61 -0.79 0.02z"/>
  <path d="M14.55 27.04 c-0.40 -0.64 -0.28 -0.86 0.40 -0.78 0.58 0.07 0.66 0.41 0.26 0.94 l-0.31 0.38 -0.35 -0.54z"/>
  <path d="M26.24 27.06 c-0.12 -0.26 -0.26 -0.50 -0.35 -0.50 -0.08 0 -0.15 -0.07 -0.15 -0.17 0 -0.08 0.33 -0.17 0.73 -0.17 0.41 0 0.79 0.08 0.84 0.17 0.05 0.10 0.03 0.17 -0.05 0.17 -0.08 0 -0.25 0.23 -0.36 0.50 -0.12 0.28 -0.26 0.50 -0.33 0.50 -0.07 0 -0.21 -0.21 -0.33 -0.50z"/>
  <path d="M15.68 18.83 c0 -0.26 0.10 -0.35 0.43 -0.35 0.54 0 0.50 0.54 -0.07 0.63 -0.28 0.05 -0.36 -0.03 -0.36 -0.28z"/>
  <path d="M26.24 18.81 c0 -0.21 0.12 -0.33 0.33 -0.33 0.21 0 0.33 0.12 0.33 0.33 0 0.21 -0.12 0.33 -0.33 0.33 -0.21 0 -0.33 -0.12 -0.33 -0.33z"/>
 </g>
 <g fill="#ff84b2">
  <path d="M18.07 30.13 c-0.36 -0.12 -0.87 -0.33 -1.15 -0.46 l-0.50 -0.26 0.66 -0.17 c1.73 -0.46 2.72 -0.59 3.17 -0.43 0.30 0.12 0.64 0.12 0.99 0 0.48 -0.13 2.08 0.10 3.33 0.50 0.41 0.13 -0.05 0.41 -1.24 0.74 -1.32 0.36 -4.22 0.41 -5.26 0.08z"/>
 </g>
</svg>