<?xml version="1.0" encoding="UTF-8"?>
<!DOCTYPE svg PUBLIC "-//W3C//DTD SVG 1.1//EN" "http://www.w3.org/Graphics/SVG/1.1/DTD/svg11.dtd">
<svg xmlns="http://www.w3.org/2000/svg" version="1.1" width="664px" height="135px" style="shape-rendering:geometricPrecision; text-rendering:geometricPrecision; image-rendering:optimizeQuality; fill-rule:evenodd; clip-rule:evenodd" xmlns:xlink="http://www.w3.org/1999/xlink">
<g><path style="opacity:0.929" fill="#000000" d="M 74.5,9.5 C 75.4959,9.41423 76.3292,9.74756 77,10.5C 77.3333,45.1667 77.6667,79.8333 78,114.5C 81.2846,116.137 84.7846,116.804 88.5,116.5C 88.5,118.167 88.5,119.833 88.5,121.5C 79.8333,121.5 71.1667,121.5 62.5,121.5C 62.8076,119.076 62.4742,116.743 61.5,114.5C 49.1827,124.643 35.8493,126.143 21.5,119C 11.6982,110.442 7.0315,99.6086 7.5,86.5C 7.73703,61.2643 20.4037,47.5976 45.5,45.5C 51.2712,46.038 56.9378,47.038 62.5,48.5C 62.7932,39.292 62.4599,30.1254 61.5,21C 61.0946,20.0546 60.428,19.3879 59.5,19C 56.854,18.5026 54.1873,18.3359 51.5,18.5C 51.5,16.8333 51.5,15.1667 51.5,13.5C 59.349,12.4705 67.0156,11.1372 74.5,9.5 Z M 43.5,51.5 C 53.3438,51.4879 59.5105,56.1545 62,65.5C 62.6667,77.1667 62.6667,88.8333 62,100.5C 60.2552,109.878 54.5886,114.545 45,114.5C 35.1774,114.019 28.8441,109.019 26,99.5C 22.0763,85.6346 23.4096,72.3013 30,59.5C 33.6961,55.2685 38.1961,52.6018 43.5,51.5 Z"/></g>
<g><path style="opacity:0.927" fill="#000000" d="M 354.5,9.5 C 355.496,9.41423 356.329,9.74756 357,10.5C 357.333,45.1667 357.667,79.8333 358,114.5C 361.243,116.263 364.743,116.929 368.5,116.5C 368.5,118.167 368.5,119.833 368.5,121.5C 355.833,121.5 343.167,121.5 330.5,121.5C 330.5,119.833 330.5,118.167 330.5,116.5C 333.978,116.816 337.312,116.316 340.5,115C 341.167,113.333 341.833,111.667 342.5,110C 342.649,81.7061 342.482,53.2061 342,24.5C 341.798,22.7444 341.298,21.0777 340.5,19.5C 337.579,18.5934 334.579,18.2601 331.5,18.5C 331.5,16.8333 331.5,15.1667 331.5,13.5C 339.346,12.471 347.013,11.1376 354.5,9.5 Z"/></g>
<g><path style="opacity:0.911" fill="#000000" d="M 127.5,45.5 C 151.988,44.5255 163.488,56.1922 162,80.5C 161.25,81.1258 160.416,81.6258 159.5,82C 144.17,82.4999 128.837,82.6666 113.5,82.5C 112.571,93.8801 115.904,103.713 123.5,112C 132.587,116.988 141.254,116.322 149.5,110C 152.39,106.618 155.056,103.118 157.5,99.5C 161.825,100.979 162.659,103.645 160,107.5C 153.99,118.924 144.49,124.258 131.5,123.5C 107.528,122.687 96.1945,110.187 97.5,86C 96.309,63.7821 106.309,50.2821 127.5,45.5 Z M 129.5,51.5 C 137.254,51.619 142.42,55.2856 145,62.5C 146.106,66.1221 146.439,69.7887 146,73.5C 145.5,74 145,74.5 144.5,75C 134.172,75.4998 123.839,75.6665 113.5,75.5C 113.717,67.6764 116.384,60.843 121.5,55C 124.158,53.522 126.825,52.3554 129.5,51.5 Z"/></g>
<g><path style="opacity:0.917" fill="#000000" d="M 206.5,45.5 C 215.329,45.1926 223.663,47.0259 231.5,51C 238.018,55.4487 239.018,60.782 234.5,67C 231.634,68.4568 228.634,68.7901 225.5,68C 223.261,62.857 220.261,58.1903 216.5,54C 208.276,50.2656 201.442,52.0989 196,59.5C 189.062,74.3231 188.728,89.3231 195,104.5C 203.158,115.865 213.325,118.032 225.5,111C 228.656,107.688 231.323,104.021 233.5,100C 236.951,99.6308 238.451,101.131 238,104.5C 230.347,120.076 217.847,126.243 200.5,123C 185.772,119.605 177.272,110.438 175,95.5C 172.898,82.7665 174.898,70.7665 181,59.5C 187.443,51.0296 195.943,46.363 206.5,45.5 Z"/></g>
<g><path style="opacity:0.913" fill="#000000" d="M 281.5,45.5 C 308.498,45.1643 321.831,58.4977 321.5,85.5C 319.932,114.549 304.599,127.049 275.5,123C 261.484,120.575 252.984,112.409 250,98.5C 247.112,85.3593 248.445,72.6926 254,60.5C 260.846,51.1618 270.013,46.1618 281.5,45.5 Z M 284.5,51.5 C 292.002,52.1699 297.502,55.8366 301,62.5C 304.353,73.9274 305.353,85.5941 304,97.5C 301.575,113.271 292.742,119.438 277.5,116C 271.933,112.713 268.433,107.879 267,101.5C 265.474,91.8855 265.141,82.2188 266,72.5C 267.16,60.7219 273.326,53.7219 284.5,51.5 Z"/></g>
<g><path style="opacity:0.916" fill="#000000" d="M 409.5,45.5 C 431.17,43.893 444.337,53.5596 449,74.5C 453.948,109.879 438.781,126.046 403.5,123C 389.228,119.727 380.728,110.894 378,96.5C 375.581,83.6064 377.247,71.273 383,59.5C 389.735,50.7172 398.568,46.0506 409.5,45.5 Z M 407.5,52.5 C 421.408,50.5643 429.575,56.5643 432,70.5C 434.872,83.9772 433.539,96.9772 428,109.5C 419.332,119.367 409.999,120.033 400,111.5C 393.476,98.1404 391.81,84.1404 395,69.5C 396.762,61.9396 400.929,56.2729 407.5,52.5 Z"/></g>
<g><path style="opacity:0.91" fill="#000000" d="M 496.5,45.5 C 506.751,44.739 515.917,47.4056 524,53.5C 529.299,63.869 526.132,68.7023 514.5,68C 512.248,62.8236 509.248,58.157 505.5,54C 494.826,50.249 487.326,53.749 483,64.5C 478.343,76.8286 478.343,89.1619 483,101.5C 489.738,114.722 499.905,118.222 513.5,112C 517.683,108.826 520.683,104.826 522.5,100C 525.229,99.1985 526.895,100.199 527.5,103C 523.982,113.85 516.649,120.517 505.5,123C 481.542,126.295 467.709,116.128 464,92.5C 461.523,76.5406 466.023,63.0406 477.5,52C 483.491,48.4299 489.824,46.2632 496.5,45.5 Z"/></g>
<g><path style="opacity:0.916" fill="#000000" d="M 570.5,45.5 C 592.209,43.9069 605.376,53.5736 610,74.5C 614.944,109.884 599.777,126.05 564.5,123C 550.228,119.727 541.728,110.894 539,96.5C 536.371,83.5735 538.037,71.2401 544,59.5C 550.699,50.7345 559.532,46.0679 570.5,45.5 Z M 568.5,52.5 C 582.408,50.5643 590.575,56.5643 593,70.5C 595.275,81.2566 594.941,91.9232 592,102.5C 586.745,117.048 577.245,120.881 563.5,114C 559.291,110.083 556.791,105.25 556,99.5C 553.006,85.6823 554.339,72.3489 560,59.5C 562.464,56.519 565.297,54.1856 568.5,52.5 Z"/></g>
<g><path style="opacity:0.957" fill="#ff8400" d="M 635.5,95.5 C 651.59,93.7536 658.09,100.754 655,116.5C 650.07,124.393 643.237,126.56 634.5,123C 629.284,120.236 626.618,115.902 626.5,110C 626.854,103.488 629.854,98.6546 635.5,95.5 Z"/></g>
</svg>
