<?xml version="1.0" encoding="utf-8"?>
<!DOCTYPE svg PUBLIC "-//W3C//DTD SVG 1.0//EN" "http://www.w3.org/TR/2001/REC-SVG-20010904/DTD/svg10.dtd">
<svg version="1.0" xmlns="http://www.w3.org/2000/svg" width="32px" height="32px" viewBox="0 0 32 32" preserveAspectRatio="xMidYMid meet">
 <g fill="#54c147">
  <path d="M15.04 31.93 c-4.99 -0.30 -9.56 -2.95 -12.34 -7.16 -1.23 -1.86 -2.06 -3.96 -2.41 -6.14 -0.55 -3.31 -0.05 -6.66 1.43 -9.66 1.26 -2.55 3.11 -4.66 5.50 -6.25 1.98 -1.32 4.37 -2.21 6.71 -2.51 1.37 -0.17 2.79 -0.17 4.16 0 4.01 0.51 7.75 2.61 10.33 5.80 2.62 3.23 3.86 7.37 3.46 11.52 -0.40 4.20 -2.44 8.05 -5.70 10.77 -1.89 1.57 -4.29 2.75 -6.66 3.28 -1.49 0.33 -2.99 0.45 -4.48 0.36z m5.15 -14.63 c2.63 -3.86 4.78 -7.03 4.79 -7.05 0.01 -0.04 -3.29 -2.59 -3.32 -2.58 -0.01 0.01 -1.63 2.38 -3.59 5.28 -3.33 4.91 -3.58 5.27 -3.66 5.27 -0.06 0 -0.17 -0.07 -0.36 -0.21 -0.60 -0.46 -4.63 -3.51 -4.63 -3.50 0 0 -0.54 0.76 -1.19 1.69 l-1.19 1.68 0.20 0.15 c3.02 2.36 8.14 6.33 8.16 6.32 0.01 -0.02 2.17 -3.18 4.80 -7.04z"/>
 </g>
 <g fill="#ffffff">
  <path d="M11.14 21.25 c-2.34 -1.82 -4.26 -3.33 -4.26 -3.34 -0.01 -0.03 2.48 -3.56 2.52 -3.56 0.03 0 4.80 3.60 4.94 3.72 0.06 0.06 0.07 0.06 3.64 -5.21 1.96 -2.90 3.59 -5.29 3.62 -5.32 0.05 -0.06 0.13 0 1.80 1.29 1.04 0.80 1.75 1.37 1.75 1.40 -0 0.04 -9.25 13.65 -9.66 14.22 l-0.09 0.12 -4.25 -3.31z"/>
 </g>
</svg>