<?xml version="1.0" encoding="utf-8"?>
<!DOCTYPE svg PUBLIC "-//W3C//DTD SVG 1.0//EN" "http://www.w3.org/TR/2001/REC-SVG-20010904/DTD/svg10.dtd">
<svg version="1.0" xmlns="http://www.w3.org/2000/svg" width="80px" height="80px" viewBox="0 0 80 80" preserveAspectRatio="xMidYMid meet">
 <g fill="#000000">
  <path d="M14.5 50.5 l-10.5 -10.5 10.6 -10.6 10.6 -10.6 2.4 2.2 2.4 2.2 -8.5 8.5 -8.5 8.5 8.5 8.5 8.5 8.5 -2.2 2 c-1.2 1.1 -2.3 2 -2.5 2 -0.2 0 -5.1 -4.7 -10.8 -10.5z"/>
  <path d="M52 58.9 l-2 -2.1 8.4 -8.4 8.5 -8.5 -8.5 -8.5 -8.5 -8.5 2.4 -2.2 2.4 -2.2 10.6 10.6 10.6 10.6 -10.5 10.5 c-5.7 5.7 -10.6 10.5 -10.9 10.5 -0.3 0 -1.5 -0.9 -2.5 -2z"/>
 </g>
</svg>