<?xml version="1.0" encoding="utf-8"?>
<!DOCTYPE svg PUBLIC "-//W3C//DTD SVG 1.0//EN" "http://www.w3.org/TR/2001/REC-SVG-20010904/DTD/svg10.dtd">
<svg version="1.0" xmlns="http://www.w3.org/2000/svg" width="80px" height="80px" viewBox="0 0 80 80" preserveAspectRatio="xMidYMid meet">
 <g fill="#000000">
  <path d="M10 64 l0 -6.08 8.08 -8.08 8.08 -8.17 -7.67 -7.75 c-9.75 -10 -9.92 -11.17 -2.92 -18.25 7 -7.08 8.17 -6.92 18.25 2.83 l7.83 7.58 2.50 -2.33 2.58 -2.42 5.92 6 6 5.92 -2.42 2.58 -2.42 2.50 7.67 7.83 c9.75 9.92 9.92 11 2.83 18.17 -7.17 7.08 -8.25 6.92 -18.25 -2.83 l-7.75 -7.67 -8.17 8.08 -8.08 8.08 -6.08 0 -6 0 0 -6z m50.42 -4 l3.25 -3.33 -2.25 -2.25 -2.17 -2.25 -2.17 2 -2.08 1.92 -2.08 -1.92 -2.08 -2 1.67 -1.75 c2.17 -2.33 2.08 -2.75 -0.58 -5.58 l-2.25 -2.33 -3.58 3.50 -3.58 3.50 6.83 6.92 c3.75 3.83 7.08 6.92 7.33 6.92 0.25 0 2 -1.50 3.75 -3.33z m-25.17 -31.83 c-2.67 -2.75 -3.33 -2.83 -5.67 -0.67 l-1.75 1.67 -2 -2.08 -1.92 -2.08 1.92 -2.08 2 -2.17 -2.25 -2.25 -2.25 -2.25 -3.50 3.58 -3.58 3.50 7.08 7.08 7 7.08 3.58 -3.50 3.58 -3.50 -2.25 -2.33z"/>
  <path d="M56.83 23.08 l-6 -6.08 3.17 -3.08 c1.75 -1.67 3.92 -3.08 4.83 -3.08 2.17 0 10.33 8.33 10.33 10.50 0 0.92 -1.42 3.08 -3.17 4.75 l-3.17 3.08 -6 -6.08z"/>
 </g>
</svg>