<?xml version="1.0" encoding="utf-8"?>
<!DOCTYPE svg PUBLIC "-//W3C//DTD SVG 1.0//EN" "http://www.w3.org/TR/2001/REC-SVG-20010904/DTD/svg10.dtd">
<svg version="1.0" xmlns="http://www.w3.org/2000/svg" width="80px" height="80px" viewBox="0 0 80 80" preserveAspectRatio="xMidYMid meet">
 <g fill="#000000">
  <path d="M29.50 79.31 c-0.33 -0.13 -0.73 -0.38 -0.89 -0.58 -0.33 -0.39 -0.64 -1.55 -0.64 -2.33 0 -0.41 -0.09 -0.48 -0.86 -0.77 -0.48 -0.19 -1.16 -0.47 -1.48 -0.64 l-0.63 -0.31 -1.02 0.70 c-1.59 1.09 -2.22 0.97 -3.86 -0.73 -1.56 -1.63 -1.64 -2.39 -0.44 -3.95 l0.64 -0.83 -0.30 -0.61 c-0.17 -0.33 -0.42 -0.95 -0.56 -1.39 -0.27 -0.83 -0.53 -1 -1.55 -1 -0.55 0 -1.59 -0.59 -1.88 -1.08 -0.20 -0.36 -0.27 -0.83 -0.27 -2.09 0 -1.44 0.05 -1.69 0.36 -2.16 0.44 -0.66 1.23 -1.08 2.06 -1.08 0.34 0 0.70 -0.06 0.81 -0.13 0.09 -0.06 0.36 -0.58 0.56 -1.13 0.22 -0.56 0.48 -1.23 0.59 -1.52 0.19 -0.47 0.17 -0.53 -0.27 -1.09 -0.91 -1.13 -1.06 -1.83 -0.63 -2.67 0.27 -0.50 2.05 -2.27 2.55 -2.52 0.78 -0.41 1.64 -0.13 3.11 0.98 0.13 0.11 0.55 0 1.27 -0.33 0.58 -0.27 1.33 -0.56 1.66 -0.67 0.48 -0.16 0.58 -0.25 0.58 -0.59 0 -0.73 0.33 -1.66 0.75 -2.11 0.58 -0.59 1.42 -0.80 2.98 -0.66 1.97 0.16 2.50 0.64 2.75 2.53 0.09 0.70 0.16 0.81 0.52 0.91 0.23 0.05 0.95 0.34 1.61 0.64 l1.19 0.56 0.72 -0.55 c0.80 -0.61 1.59 -0.81 2.22 -0.58 0.52 0.20 2.38 1.95 2.67 2.53 0.34 0.66 0.28 1.56 -0.17 2.17 -0.20 0.30 -0.50 0.69 -0.64 0.89 -0.25 0.33 -0.23 0.41 0.20 1.41 0.25 0.58 0.53 1.25 0.61 1.52 0.13 0.42 0.23 0.48 0.98 0.59 1.11 0.16 1.58 0.39 2 1.03 0.31 0.47 0.36 0.72 0.36 2.08 0 2.16 -0.45 2.97 -1.80 3.17 -1.67 0.27 -1.59 0.22 -1.80 0.91 -0.11 0.36 -0.39 1.03 -0.63 1.50 l-0.42 0.86 0.67 1 c1.06 1.53 0.91 2.16 -0.94 3.91 -1.14 1.08 -1.22 1.13 -1.95 1.13 -0.67 0 -0.89 -0.09 -1.67 -0.69 l-0.91 -0.69 -0.80 0.36 c-0.44 0.19 -1.14 0.45 -1.58 0.61 l-0.80 0.25 -0.16 1.08 c-0.20 1.27 -0.53 1.78 -1.34 2.13 -0.72 0.30 -2.77 0.30 -3.58 0.02z m4.45 -10.53 c1.17 -0.55 2.17 -1.53 2.73 -2.69 0.38 -0.77 0.42 -1.05 0.42 -2.42 0 -1.38 -0.05 -1.67 -0.42 -2.45 -0.52 -1.11 -1.56 -2.16 -2.75 -2.73 -0.78 -0.39 -1.06 -0.44 -2.38 -0.44 -1.28 0 -1.61 0.06 -2.38 0.42 -4.03 1.89 -4.50 7.44 -0.83 9.89 1.70 1.13 3.78 1.28 5.59 0.42z"/>
  <path d="M58.92 63.19 c-0.64 -0.53 -0.86 -1.03 -1.11 -2.53 l-0.20 -1.13 -0.64 -0.16 c-0.36 -0.09 -1.20 -0.38 -1.89 -0.63 l-1.23 -0.45 -0.95 0.91 c-0.52 0.50 -1.11 0.98 -1.31 1.11 -0.58 0.30 -1.52 0.22 -2.09 -0.17 -1.20 -0.86 -3.22 -2.69 -3.39 -3.13 -0.31 -0.73 -0.11 -1.56 0.69 -2.73 0.39 -0.59 0.72 -1.16 0.72 -1.27 0 -0.09 -0.23 -0.59 -0.53 -1.09 -0.30 -0.50 -0.66 -1.20 -0.80 -1.55 l-0.25 -0.66 -1.53 -0.09 c-2.56 -0.19 -2.88 -0.56 -3.16 -3.88 -0.17 -2 -0.16 -2.17 0.11 -2.64 0.45 -0.77 0.97 -1.05 2.36 -1.33 l1.30 -0.27 0.16 -0.64 c0.09 -0.36 0.36 -1.25 0.61 -1.98 l0.44 -1.33 -0.98 -1.05 c-1.55 -1.63 -1.55 -2.22 -0.02 -4.13 1.48 -1.86 2.19 -2.52 2.84 -2.64 0.66 -0.13 1 0.02 2.38 0.89 l0.97 0.63 0.91 -0.58 c0.50 -0.31 1.36 -0.77 1.92 -1.02 l1.02 -0.42 0.08 -1.39 c0.14 -2.36 0.69 -2.77 4 -2.95 2.89 -0.16 3.33 0.13 3.81 2.41 l0.25 1.19 1.41 0.41 c0.77 0.23 1.66 0.53 2 0.67 l0.61 0.27 0.69 -0.58 c1.50 -1.28 1.61 -1.34 2.20 -1.34 0.33 0 0.80 0.11 1.05 0.25 0.56 0.30 2.98 2.33 3.39 2.84 0.67 0.84 0.53 1.64 -0.53 3.25 l-0.61 0.89 0.53 0.91 c0.28 0.48 0.69 1.28 0.88 1.77 l0.38 0.88 1.41 0.11 c2.23 0.17 2.69 0.61 2.92 2.88 0.22 1.95 0.19 3.27 -0.06 3.75 -0.30 0.58 -1.20 1.05 -2.47 1.28 l-1.06 0.19 -0.16 0.66 c-0.09 0.34 -0.38 1.22 -0.64 1.94 l-0.47 1.28 1 1.19 c1.08 1.25 1.25 1.67 1.02 2.50 -0.14 0.53 -2.27 3.20 -3.03 3.80 -0.91 0.70 -1.67 0.58 -3.41 -0.59 l-0.94 -0.63 -0.63 0.39 c-0.36 0.22 -1.19 0.66 -1.84 0.97 l-1.22 0.55 0 1.11 c0 1.39 -0.20 2.13 -0.72 2.66 -0.56 0.55 -1.17 0.69 -3.58 0.81 l-2.03 0.11 -0.53 -0.45z m2.88 -12.27 c2.38 -0.44 4.28 -1.97 5.27 -4.22 0.31 -0.73 0.36 -1.09 0.36 -2.72 0 -1.80 -0.03 -1.92 -0.50 -2.89 -1.64 -3.33 -5.34 -4.84 -8.77 -3.56 -2.20 0.81 -3.70 2.52 -4.34 4.89 -0.98 3.63 1.50 7.61 5.25 8.45 1.13 0.25 1.63 0.25 2.73 0.05z"/>
  <path d="M20.70 47.67 c-1.27 -0.33 -1.69 -1.08 -1.95 -3.55 l-0.19 -1.73 -1.13 -0.36 c-0.61 -0.19 -1.59 -0.59 -2.17 -0.89 l-1.08 -0.53 -1.16 0.91 c-2.91 2.27 -3.14 2.23 -6.20 -0.86 -2.91 -2.94 -2.94 -3.20 -0.80 -5.86 0.55 -0.69 1 -1.30 1 -1.36 0 -0.06 -0.27 -0.72 -0.61 -1.44 -0.33 -0.70 -0.72 -1.63 -0.88 -2.03 -0.17 -0.48 -0.36 -0.75 -0.52 -0.75 -0.97 -0.02 -3.52 -0.48 -3.91 -0.70 -0.95 -0.58 -1.05 -0.94 -1.05 -4.22 0 -4.30 0.11 -4.47 3.19 -4.88 l1.86 -0.25 0.41 -1.25 c0.23 -0.70 0.63 -1.70 0.88 -2.23 0.27 -0.53 0.47 -1.02 0.47 -1.08 0 -0.06 -0.45 -0.69 -0.98 -1.39 -1.20 -1.53 -1.36 -1.81 -1.36 -2.44 0 -0.78 0.33 -1.22 2.61 -3.45 2.31 -2.28 2.63 -2.45 3.66 -2.11 0.31 0.11 1.14 0.64 1.83 1.17 l1.27 0.98 1.45 -0.70 c0.80 -0.39 1.91 -0.84 2.47 -1.03 l1.03 -0.33 0.19 -1.66 c0.19 -1.73 0.47 -2.42 1.16 -2.88 0.28 -0.19 1.02 -0.25 3.25 -0.28 3.17 -0.06 3.83 0.05 4.45 0.70 0.42 0.47 0.52 0.78 0.77 2.75 l0.17 1.38 1.17 0.39 c0.64 0.22 1.72 0.67 2.39 1.02 l1.20 0.61 1.30 -1.02 c2.28 -1.81 2.67 -1.75 5.38 0.91 2.22 2.17 2.59 2.69 2.58 3.56 -0.02 0.70 -0.17 1 -1.41 2.53 l-0.86 1.06 0.66 1.44 c0.34 0.78 0.77 1.83 0.92 2.30 l0.30 0.86 1.39 0.17 c1.97 0.25 2.30 0.34 2.77 0.77 0.66 0.63 0.77 1.28 0.70 4.45 -0.05 2.47 -0.09 2.95 -0.33 3.31 -0.42 0.61 -1.19 0.91 -2.95 1.11 l-1.59 0.19 -0.56 1.48 c-0.31 0.81 -0.77 1.86 -1 2.31 l-0.42 0.83 1.05 1.34 c1.22 1.56 1.53 2.27 1.31 3.03 -0.17 0.56 -3.95 4.50 -4.72 4.92 -0.97 0.52 -1.66 0.25 -3.58 -1.30 -0.70 -0.56 -1.17 -0.83 -1.36 -0.78 -0.14 0.05 -0.91 0.38 -1.70 0.72 -0.80 0.34 -1.75 0.70 -2.13 0.80 l-0.67 0.17 -0.25 1.94 c-0.42 3.14 -0.58 3.27 -4.50 3.31 -1.50 0.02 -2.94 -0.03 -3.20 -0.09z m4.84 -15.41 c0.61 -0.13 1.55 -0.45 2.11 -0.73 1.31 -0.64 3.08 -2.39 3.73 -3.70 1.67 -3.30 1.09 -7.19 -1.44 -9.77 -1.20 -1.22 -1.95 -1.70 -3.48 -2.22 -3.05 -1.02 -6.25 -0.27 -8.58 2.03 -1.91 1.88 -2.67 3.86 -2.53 6.50 0.19 3.91 2.88 7.06 6.70 7.89 1.30 0.28 2.16 0.28 3.48 0z"/>
 </g>
</svg>