<?xml version="1.0" encoding="utf-8"?>
<!DOCTYPE svg PUBLIC "-//W3C//DTD SVG 1.0//EN" "http://www.w3.org/TR/2001/REC-SVG-20010904/DTD/svg10.dtd">
<svg version="1.0" xmlns="http://www.w3.org/2000/svg" width="32px" height="32px" viewBox="0 0 32 32" preserveAspectRatio="xMidYMid meet">
 <g fill="#000000">
  <path d="M2.83 30.54 c-0.47 -0.12 -1.18 -0.49 -1.55 -0.81 -0.44 -0.39 -0.86 -1.03 -1.07 -1.63 l-0.17 -0.50 0 -11.59 0 -11.59 0.17 -0.49 c0.24 -0.68 0.44 -1 0.93 -1.49 0.46 -0.46 1.19 -0.86 1.79 -0.98 0.47 -0.09 25.68 -0.09 26.15 0 0.48 0.10 1.28 0.51 1.66 0.84 0.65 0.57 1.10 1.45 1.20 2.36 0.08 0.68 0.08 22.03 0 22.71 -0.10 0.91 -0.55 1.78 -1.20 2.36 -0.38 0.34 -1.18 0.74 -1.66 0.84 -0.52 0.11 -25.81 0.09 -26.25 -0.02z m26.27 -2.02 c0.33 -0.17 0.62 -0.49 0.77 -0.83 0.13 -0.28 0.13 -0.36 0.13 -9.98 l0 -9.71 -14 0 -14 0 0 9.71 c0 9.62 0.01 9.70 0.13 9.98 0.21 0.46 0.59 0.80 1.06 0.94 0.09 0.03 5.89 0.04 12.91 0.04 l12.75 -0.01 0.25 -0.14z m0.91 -23.22 c0 -0.57 -0.03 -0.76 -0.13 -0.99 -0.16 -0.34 -0.44 -0.66 -0.77 -0.83 l-0.25 -0.14 -12.84 0 -12.84 0 -0.25 0.14 c-0.33 0.17 -0.62 0.49 -0.77 0.83 -0.11 0.23 -0.13 0.41 -0.13 0.99 l0 0.70 14 0 14 0 0 -0.70z"/>
  <path d="M8.58 25.18 c-0.65 -0.32 -0.72 -1.20 -0.13 -1.64 0.14 -0.11 0.29 -0.14 0.71 -0.16 l0.52 -0.02 0 -4.68 0 -4.68 -1.84 0 -1.83 0 -0.03 0.62 c-0.03 0.46 -0.06 0.67 -0.15 0.82 -0.46 0.77 -1.57 0.61 -1.77 -0.26 -0.09 -0.36 -0.09 -2.01 0 -2.38 0.09 -0.39 0.37 -0.66 0.77 -0.75 0.22 -0.05 2.04 -0.06 6.04 -0.05 l5.72 0.02 0.23 0.14 c0.43 0.26 0.49 0.51 0.49 1.83 0 1.03 -0.01 1.17 -0.13 1.41 -0.31 0.66 -1.20 0.73 -1.64 0.13 -0.11 -0.15 -0.14 -0.28 -0.15 -0.86 l-0.03 -0.68 -1.87 0 -1.87 0 0 4.69 0 4.69 0.49 0 c0.53 0 0.77 0.11 1.02 0.44 0.32 0.43 0.13 1.09 -0.39 1.36 -0.27 0.13 -0.33 0.14 -2.09 0.14 -1.71 0 -1.83 -0.01 -2.08 -0.13z"/>
  <path d="M20.63 24.56 c-0.74 -0.30 -0.77 -1.42 -0.04 -1.75 0.24 -0.11 0.47 -0.12 3.41 -0.12 3.06 0 3.16 0.01 3.42 0.13 0.66 0.31 0.73 1.20 0.13 1.64 -0.17 0.13 -0.23 0.13 -3.47 0.14 -2.09 0.01 -3.35 -0.01 -3.45 -0.05z"/>
  <path d="M20.58 19.18 c-0.65 -0.32 -0.72 -1.20 -0.13 -1.64 0.17 -0.13 0.22 -0.13 3.54 -0.13 3.33 0 3.37 0 3.54 0.13 0.59 0.44 0.52 1.33 -0.13 1.64 -0.26 0.13 -0.36 0.13 -3.42 0.13 -3.07 0 -3.16 -0.01 -3.41 -0.13z"/>
  <path d="M20.84 13.94 c-0.26 -0.06 -0.41 -0.16 -0.59 -0.35 -0.14 -0.14 -0.16 -0.22 -0.16 -0.59 0 -0.41 0.01 -0.44 0.21 -0.65 0.13 -0.13 0.31 -0.24 0.48 -0.28 0.37 -0.09 6.09 -0.09 6.43 0 0.85 0.23 0.98 1.33 0.22 1.77 -0.21 0.13 -0.31 0.13 -3.31 0.14 -1.70 0.01 -3.17 -0.01 -3.28 -0.04z"/>
 </g>
</svg>